<svg width="640" height="640" viewBox="0 0 640 640" fill="none" xmlns="http://www.w3.org/2000/svg">
<path d="M496.74 0.620117H142.69C63.9177 0.620117 0.0600586 64.4777 0.0600586 143.25V497.3C0.0600586 576.073 63.9177 639.93 142.69 639.93H496.74C575.512 639.93 639.37 576.073 639.37 497.3V143.25C639.37 64.4777 575.512 0.620117 496.74 0.620117Z" fill="#2E7BFA"/>
<path d="M335.44 490.91L365.84 443.02C367.01 441.17 369.04 440.04 371.24 440.02L432.82 439.34C437.7 439.28 440.77 434.05 438.43 429.76L402.29 363.76C401.15 361.68 398.98 360.39 396.61 360.39H325.83C323.27 360.39 320.95 358.88 319.91 356.53L300.05 311.61C298.16 307.33 301.29 302.52 305.97 302.52H438.14C440.45 302.52 442.59 303.75 443.75 305.76L550.78 491.13C553.27 495.45 550.16 500.84 545.17 500.84H340.92C335.82 500.84 332.72 495.21 335.45 490.9L335.44 490.91Z" fill="white"/>
<path d="M355.82 282.42L327.21 230.52C324.77 226.09 318.4 226.05 315.91 230.46L279.65 294.62C278.62 296.44 278.54 298.63 279.42 300.53L309.3 364.89C310.19 366.81 310.09 369.04 309.02 370.87L286.14 410.19C284.78 412.52 282.12 413.77 279.45 413.31C277.6 412.99 275.97 411.88 274.99 410.26L206.15 295.72C204.94 293.71 204.92 291.2 206.08 289.16L314.12 100.7C316.61 96.3698 322.85 96.3598 325.34 100.69L426.57 276.04C429.06 280.36 425.95 285.75 420.96 285.75H361.48C359.12 285.75 356.95 284.47 355.81 282.41H355.82V282.42Z" fill="white"/>
<path d="M230.94 376.22L199.39 433.82C197.03 438.14 200.15 443.4 205.07 443.4H281.92C284.17 443.4 286.26 442.23 287.43 440.3L324.74 379.4C325.91 377.48 328 376.3 330.25 376.3H377.92C382.99 376.3 386.09 381.86 383.43 386.17L314.61 497.75C313.44 499.66 311.35 500.82 309.1 500.82H94.28C89.29 500.82 86.19 495.42 88.67 491.11L188.63 317.98C191.09 313.7 197.25 313.65 199.79 317.9L230.81 369.78C231.98 371.75 232.03 374.19 230.93 376.21H230.94V376.22Z" fill="white"/>
</svg>
